<svg width="263" height="131" viewBox="0 0 263 131" fill="none" xmlns="http://www.w3.org/2000/svg">
<mask id="mask0_1_18" style="mask-type:luminance" maskUnits="userSpaceOnUse" x="13" y="18" width="100" height="101">
<path d="M63.0904 118.048C35.7548 118.048 13.5269 95.7796 13.5269 68.3939C13.5269 41.0081 35.79 18.7395 63.0904 18.7395C90.3908 18.7395 112.654 41.0081 112.654 68.3939C112.654 95.7796 90.4261 118.048 63.0904 118.048ZM63.0904 35.9262C45.2307 35.9262 30.6822 50.5014 30.6822 68.3939C30.6822 86.2864 45.2307 100.862 63.0904 100.862C80.9502 100.862 95.4987 86.2864 95.4987 68.3939C95.4987 50.5014 80.9502 35.9262 63.0904 35.9262Z" fill="white"/>
</mask>
<g mask="url(#mask0_1_18)">
<mask id="mask1_1_18" style="mask-type:luminance" maskUnits="userSpaceOnUse" x="4" y="16" width="185" height="103">
<path d="M188.285 16.128H4.93169V118.366H188.285V16.128Z" fill="white"/>
</mask>
<g mask="url(#mask1_1_18)">
<path d="M4.93169 76.5108L8.48956 94.5091L15.3939 82.3691L4.93169 76.5108Z" fill="#0243B7"/>
<path d="M12.0474 64.3354L4.93169 76.5108L15.3939 82.3691L12.0474 64.3354Z" fill="#0047B6"/>
<path d="M4.93169 28.3033L8.48956 46.1253L15.3939 34.3734L4.93169 28.3033Z" fill="#053E95"/>
<path d="M8.48956 94.5092L12.0474 112.543L18.9518 100.614L8.48956 94.5092Z" fill="#013FB8"/>
<path d="M11.8361 16.3397L4.93169 28.3033L22.0869 22.4097L11.8361 16.3397Z" fill="#083C88"/>
<path d="M4.93169 28.3033L15.3939 34.3734L22.0869 22.4098L4.93169 28.3033Z" fill="#064191"/>
<path d="M18.9518 100.615L12.0474 112.543L22.2983 118.613L18.9518 100.615Z" fill="#0142BA"/>
<path d="M12.0474 112.543L5.14305 124.718L22.2983 118.613L12.0474 112.543Z" fill="#0139B4"/>
<path d="M12.0474 64.3354L15.3939 82.3691L22.5096 70.4054L12.0474 64.3354Z" fill="#0153BF"/>
<path d="M22.5096 70.4054L15.3939 82.3691L25.8562 88.4391L22.5096 70.4054Z" fill="#025AC6"/>
<path d="M15.3939 82.3691L8.48956 94.5091L25.8562 88.4391L15.3939 82.3691Z" fill="#014EC0"/>
<path d="M8.48956 94.5092L18.9518 100.614L25.8562 88.4391L8.48956 94.5092Z" fill="#024BBE"/>
<path d="M15.3939 34.3734L8.48956 46.1253L25.8562 40.2317L15.3939 34.3734Z" fill="#044BA3"/>
<path d="M22.0869 22.4098L15.3939 34.3734L25.8562 40.2317L22.0869 22.4098Z" fill="#064EA0"/>
<path d="M11.8361 16.3397L22.0869 22.4097L29.2027 10.0579L11.8361 16.3397Z" fill="#0A428C"/>
<path d="M12.0474 64.3354L22.5096 70.4054L29.2027 58.4771L12.0474 64.3354Z" fill="#015FC3"/>
<path d="M8.48956 46.1253L12.0474 64.3354L29.2027 58.4771L8.48956 46.1253Z" fill="#0052B5"/>
<path d="M25.8562 40.2317L8.48956 46.1253L29.2027 58.4771L25.8562 40.2317Z" fill="#0158B7"/>
<path d="M18.9518 100.615L22.2983 118.613L29.414 106.685L18.9518 100.615Z" fill="#014BC4"/>
<path d="M22.0869 22.4098L25.8562 40.2317L32.7605 28.3033L22.0869 22.4098Z" fill="#0856A8"/>
<path d="M29.2027 10.0579L22.0869 22.4097L32.7605 28.3033L29.2027 10.0579Z" fill="#0D4F9D"/>
<path d="M29.414 106.685L22.2983 118.613L32.7605 124.718L29.414 106.685Z" fill="#0050C6"/>
<path d="M22.5096 70.4054L25.8561 88.4391L32.7605 76.5108L22.5096 70.4054Z" fill="#006AD0"/>
<path d="M25.8562 88.4391L18.9518 100.614L36.107 94.7209L25.8562 88.4391Z" fill="#025ECD"/>
<path d="M18.9518 100.614L29.414 106.685L36.107 94.7209L18.9518 100.614Z" fill="#015BCD"/>
<path d="M25.8562 40.2317L29.2027 58.4771L36.107 46.337L25.8562 40.2317Z" fill="#046EC4"/>
<path d="M32.7605 28.3033L25.8562 40.2317L36.107 46.337L32.7605 28.3033Z" fill="#076ABD"/>
<path d="M29.2027 10.0579L32.7605 28.3033L39.6649 16.128L29.2027 10.0579Z" fill="#0E57A4"/>
<path d="M29.414 106.685L32.7605 124.718L39.8762 112.543L29.414 106.685Z" fill="#015CCF"/>
<path d="M36.107 94.7209L29.414 106.685L39.8762 112.543L36.107 94.7209Z" fill="#0167D3"/>
<path d="M29.2027 58.4771L22.5096 70.4054L39.8762 64.5471L29.2027 58.4771Z" fill="#0177D1"/>
<path d="M22.5096 70.4054L32.7605 76.5108L39.8762 64.5471L22.5096 70.4054Z" fill="#0177D7"/>
<path d="M39.8762 64.5471L32.7605 76.5108L43.0114 82.5808L39.8762 64.5471Z" fill="#008DDF"/>
<path d="M32.7605 76.5108L25.8562 88.4391L43.0114 82.5808L32.7605 76.5108Z" fill="#017AD7"/>
<path d="M25.8562 88.4391L36.107 94.7209L43.0114 82.5808L25.8562 88.4391Z" fill="#0278D8"/>
<path d="M32.7605 28.3033L36.107 46.337L43.2227 34.3734L32.7605 28.3033Z" fill="#0876C1"/>
<path d="M43.2227 34.3734L36.107 46.337L46.5693 52.4071L43.2227 34.3734Z" fill="#038CD2"/>
<path d="M36.107 46.337L29.2027 58.4771L46.5692 52.4071L36.107 46.337Z" fill="#0386D4"/>
<path d="M29.2027 58.4771L39.8762 64.5471L46.5692 52.4071L29.2027 58.4771Z" fill="#028EDB"/>
<path d="M36.107 94.7209L39.8762 112.543L46.7806 100.614L36.107 94.7209Z" fill="#0278DC"/>
<path d="M43.0114 82.5808L36.107 94.7209L46.7806 100.614L43.0114 82.5808Z" fill="#0088E0"/>
<path d="M39.6649 16.128L32.7605 28.3033L50.1271 22.4097L39.6649 16.128Z" fill="#0C68B5"/>
<path d="M32.7605 28.3033L43.2227 34.3734L50.1271 22.4098L32.7605 28.3033Z" fill="#0D78C0"/>
<path d="M39.8762 112.543L32.7605 124.718L50.1271 118.825L39.8762 112.543Z" fill="#0268D7"/>
<path d="M39.8762 64.5471L43.0114 82.5808L50.1271 70.4054L39.8762 64.5471Z" fill="#019FE8"/>
<path d="M43.2227 34.3734L46.5693 52.4071L53.685 40.4434L43.2227 34.3734Z" fill="#079BDB"/>
<path d="M43.0114 82.5808L46.7806 100.614L53.685 88.6509L43.0114 82.5808Z" fill="#019AE8"/>
<path d="M50.1271 70.4054L43.0114 82.5808L53.685 88.6509L50.1271 70.4054Z" fill="#01A6EA"/>
<path d="M39.6649 16.128L50.1271 22.4098L57.0315 10.2697L39.6649 16.128Z" fill="#0F71B8"/>
<path d="M53.685 40.4434L46.5692 52.4071L57.0315 58.4771L53.685 40.4434Z" fill="#05B0E6"/>
<path d="M46.5692 52.4071L39.8762 64.5471L57.0315 58.4771L46.5692 52.4071Z" fill="#01A9E7"/>
<path d="M39.8762 64.5471L50.1271 70.4054L57.0315 58.4771L39.8762 64.5471Z" fill="#00ABE9"/>
<path d="M53.685 88.6508L46.7806 100.614L57.2428 106.685L53.685 88.6508Z" fill="#029BE9"/>
<path d="M46.7806 100.615L39.8762 112.543L57.2428 106.685L46.7806 100.615Z" fill="#0085E2"/>
<path d="M39.8762 112.543L50.1271 118.825L57.2428 106.685L39.8762 112.543Z" fill="#017FE3"/>
<path d="M57.0315 10.2697L50.1271 22.4098L60.5893 28.5151L57.0315 10.2697Z" fill="#0E85C7"/>
<path d="M50.1271 22.4098L43.2227 34.3734L60.5893 28.5151L50.1271 22.4098Z" fill="#0D8ACC"/>
<path d="M43.2227 34.3734L53.685 40.4434L60.5893 28.5151L43.2227 34.3734Z" fill="#0999D6"/>
<path d="M50.1271 70.4054L53.685 88.6509L60.5893 76.5108L50.1271 70.4054Z" fill="#01B6EF"/>
<path d="M57.2428 106.685L50.1271 118.825L60.8007 124.93L57.2428 106.685Z" fill="#008AE5"/>
<path d="M53.685 40.4434L57.0315 58.4771L64.1472 46.337L53.685 40.4434Z" fill="#04BAEA"/>
<path d="M60.5893 28.5151L53.685 40.4434L64.1472 46.337L60.5893 28.5151Z" fill="#0AB0E4"/>
<path d="M53.685 88.6508L57.2428 106.685L64.1472 94.5091L53.685 88.6508Z" fill="#01AAED"/>
<path d="M57.0315 58.4771L50.1271 70.4054L67.4937 64.5471L57.0315 58.4771Z" fill="#03C1F1"/>
<path d="M50.1271 70.4054L60.5893 76.5108L67.4937 64.5471L50.1271 70.4054Z" fill="#01C4F4"/>
<path d="M57.2428 106.685L60.8007 124.93L67.6698 112.755L57.2428 106.685Z" fill="#0294E7"/>
<path d="M60.5893 28.5151L64.1472 46.337L71.0516 34.3734L60.5893 28.5151Z" fill="#06B6E5"/>
<path d="M60.5893 76.5108L53.685 88.6509L71.0516 82.7926L60.5893 76.5108Z" fill="#01C1F2"/>
<path d="M53.685 88.6509L64.1472 94.5091L71.0516 82.7926L53.685 88.6509Z" fill="#03BCF2"/>
<path d="M67.6698 112.755L60.8007 124.93L71.2277 130.788L67.6698 112.755Z" fill="#0294E7"/>
<path d="M71.0516 34.3734L64.1472 46.337L74.3981 52.4071L71.0516 34.3734Z" fill="#07C6F0"/>
<path d="M64.1472 46.337L57.0315 58.4771L74.3981 52.4071L64.1472 46.337Z" fill="#03C9F0"/>
<path d="M57.0315 58.4771L67.4937 64.5471L74.3981 52.4071L57.0315 58.4771Z" fill="#00CDF2"/>
<path d="M71.0516 82.7926L64.1472 94.5091L74.7856 100.826L71.0516 82.7926Z" fill="#03C1F5"/>
<path d="M64.1472 94.5092L57.2428 106.685L74.7856 100.826L64.1472 94.5092Z" fill="#00B1F1"/>
<path d="M57.2428 106.685L67.6698 112.755L74.7856 100.826L57.2428 106.685Z" fill="#00A9EE"/>
<path d="M74.3981 52.4071L67.4937 64.5471L77.9207 70.6172L74.3981 52.4071Z" fill="#02D9F8"/>
<path d="M67.4937 64.5471L60.5893 76.5108L77.9207 70.6172L67.4937 64.5471Z" fill="#03D1F8"/>
<path d="M60.5893 76.5108L71.0516 82.7926L77.9207 70.6172L60.5893 76.5108Z" fill="#01D1F7"/>
<path d="M57.0315 10.2697L60.5893 28.5151L77.9207 22.4098L57.0315 10.2697Z" fill="#0C97D2"/>
<path d="M74.3981 4.19962L57.0315 10.2697L77.9207 22.4098L74.3981 4.19962Z" fill="#0B8FCD"/>
<path d="M60.5893 28.5151L71.0516 34.3734L77.9207 22.4098L60.5893 28.5151Z" fill="#0BACE0"/>
<path d="M67.6698 112.755L71.2277 130.788L78.1321 118.825L67.6698 112.755Z" fill="#009CE9"/>
<path d="M74.7856 100.826L67.6698 112.755L78.1321 118.825L74.7856 100.826Z" fill="#00A9EE"/>
<path d="M71.0516 34.3734L74.3981 52.4071L81.4786 40.4434L71.0516 34.3734Z" fill="#03CBEF"/>
<path d="M71.0516 82.7926L74.7856 100.826L81.6899 88.6509L71.0516 82.7926Z" fill="#03C9F6"/>
<path d="M77.9207 70.6172L71.0516 82.7926L81.6899 88.6509L77.9207 70.6172Z" fill="#02D4F7"/>
<path d="M74.3981 4.19962L77.9207 22.4098L84.6489 10.4814L74.3981 4.19962Z" fill="#0A96D3"/>
<path d="M74.7856 100.826L78.1321 118.825L85.0364 106.685L74.7856 100.826Z" fill="#00AFEE"/>
<path d="M74.3981 52.4071L77.9207 70.6172L85.0364 58.4771L74.3981 52.4071Z" fill="#02DCF8"/>
<path d="M81.4786 40.4434L74.3981 52.4071L85.0364 58.4771L81.4786 40.4434Z" fill="#02D7F5"/>
<path d="M77.9207 22.4098L71.0516 34.3734L88.3829 28.5151L77.9207 22.4098Z" fill="#04B4E5"/>
<path d="M71.0516 34.3734L81.4786 40.4434L88.3829 28.5151L71.0516 34.3734Z" fill="#03C2EC"/>
<path d="M77.9207 70.6172L81.6899 88.6509L88.5943 76.5108L77.9207 70.6172Z" fill="#03DAF9"/>
<path d="M85.0364 58.4771L77.9207 70.6172L88.5943 76.5108L85.0364 58.4771Z" fill="#00DFF9"/>
<path d="M81.4786 40.4434L85.0364 58.4771L91.9408 46.5135L81.4786 40.4434Z" fill="#02D7F5"/>
<path d="M88.3829 28.5151L81.4786 40.4434L91.9408 46.5135L88.3829 28.5151Z" fill="#04CBF2"/>
<path d="M81.6899 88.6508L74.7856 100.826L91.9408 94.7209L81.6899 88.6508Z" fill="#03C8F5"/>
<path d="M74.7856 100.826L85.0364 106.685L91.9408 94.7209L74.7856 100.826Z" fill="#00BFF3"/>
<path d="M91.9408 94.7209L85.0364 106.685L95.2873 112.755L91.9408 94.7209Z" fill="#00B9EF"/>
<path d="M85.0364 106.685L78.1321 118.825L95.2873 112.755L85.0364 106.685Z" fill="#04ADEE"/>
<path d="M78.1321 118.825L88.3829 124.93L95.2873 112.755L78.1321 118.825Z" fill="#01A6EA"/>
<path d="M85.0364 58.4771L88.5943 76.5108L95.2873 64.5471L85.0364 58.4771Z" fill="#00DFF9"/>
<path d="M91.9408 46.5135L85.0364 58.4771L95.2873 64.5471L91.9408 46.5135Z" fill="#01DEF8"/>
<path d="M84.649 10.4814L77.9207 22.4098L95.2873 16.5515L84.649 10.4814Z" fill="#039FDA"/>
<path d="M77.9207 22.4097L88.3829 28.5151L95.2873 16.5515L77.9207 22.4097Z" fill="#04ABE0"/>
<path d="M95.2873 112.755L88.3829 124.93L98.8452 130.788L95.2873 112.755Z" fill="#019FE6"/>
<path d="M88.5943 76.5108L81.6899 88.6509L98.8452 82.5808L88.5943 76.5108Z" fill="#03D8F8"/>
<path d="M81.6899 88.6509L91.9408 94.7209L98.8452 82.5808L81.6899 88.6509Z" fill="#02D0F7"/>
<path d="M88.3829 28.5151L91.9408 46.5135L99.0565 34.5851L88.3829 28.5151Z" fill="#00C7EE"/>
<path d="M95.2873 16.5515L88.3829 28.5151L99.0565 34.5851L95.2873 16.5515Z" fill="#04B3E8"/>
<path d="M91.9408 46.5135L95.2873 64.5471L102.403 52.6188L91.9408 46.5135Z" fill="#02DCF8"/>
<path d="M99.0565 34.5851L91.9408 46.5135L102.403 52.6188L99.0565 34.5851Z" fill="#00D2F5"/>
<path d="M91.9408 94.7209L95.2873 112.755L102.403 100.826L91.9408 94.7209Z" fill="#03BBEF"/>
<path d="M98.8452 82.5808L91.9408 94.7209L102.403 100.826L98.8452 82.5808Z" fill="#03CAF3"/>
<path d="M102.403 52.6188L95.2873 64.5471L105.75 70.6172L102.403 52.6188Z" fill="#00DBF7"/>
<path d="M95.2873 64.5471L88.5943 76.5108L105.75 70.6172L95.2873 64.5471Z" fill="#02DEF8"/>
<path d="M88.5943 76.5108L98.8452 82.5808L105.75 70.6172L88.5943 76.5108Z" fill="#01DBF7"/>
<path d="M95.2873 16.5515L99.0565 34.5851L105.75 22.4097L95.2873 16.5515Z" fill="#01ABE6"/>
<path d="M102.192 4.41137L95.2873 16.5515L105.75 22.4098L102.192 4.41137Z" fill="#0096DD"/>
<path d="M95.2873 112.755L98.8452 130.788L105.961 118.825L95.2873 112.755Z" fill="#009DE4"/>
<path d="M102.403 100.826L95.2873 112.755L105.961 118.825L102.403 100.826Z" fill="#03ABEA"/>
<path d="M99.0565 34.5851L102.403 52.6188L109.307 40.4434L99.0565 34.5851Z" fill="#02CCF4"/>
<path d="M98.8452 82.5808L102.403 100.826L109.519 88.6509L98.8452 82.5808Z" fill="#04C9F3"/>
<path d="M102.403 52.6188L105.75 70.6172L112.654 58.6888L102.403 52.6188Z" fill="#00D7F6"/>
<path d="M102.192 4.41137L105.75 22.4098L112.654 10.4814L102.192 4.41137Z" fill="#018ADA"/>
<path d="M102.403 100.826L105.961 118.825L112.865 106.896L102.403 100.826Z" fill="#01A4E5"/>
<path d="M112.865 106.896L105.961 118.825L116.212 124.93L112.865 106.896Z" fill="#0092DF"/>
<path d="M112.654 58.6888L105.75 70.6172L116.212 76.7225L112.654 58.6888Z" fill="#02D3F4"/>
<path d="M105.75 70.6172L98.8452 82.5808L116.212 76.7225L105.75 70.6172Z" fill="#02D4F5"/>
<path d="M98.8452 82.5808L109.519 88.6509L116.212 76.7225L98.8452 82.5808Z" fill="#02CEF3"/>
<path d="M105.75 22.4098L99.0565 34.5851L116.212 28.5151L105.75 22.4098Z" fill="#00ADE9"/>
<path d="M99.0565 34.5851L109.307 40.4434L116.212 28.5151L99.0565 34.5851Z" fill="#01B9EB"/>
<path d="M109.519 88.6508L102.403 100.826L119.77 94.9326L109.519 88.6508Z" fill="#01BBEC"/>
<path d="M102.403 100.826L112.865 106.896L119.77 94.9326L102.403 100.826Z" fill="#02AFE9"/>
<path d="M116.212 28.5151L109.307 40.4434L119.77 46.337L116.212 28.5151Z" fill="#00B5EC"/>
<path d="M109.307 40.4434L102.403 52.6188L119.77 46.337L109.307 40.4434Z" fill="#04C9F3"/>
<path d="M102.403 52.6188L112.654 58.6888L119.77 46.337L102.403 52.6188Z" fill="#00CEF3"/>
<path d="M112.654 10.4814L105.75 22.4098L123.116 16.5515L112.654 10.4814Z" fill="#0187DC"/>
<path d="M105.75 22.4097L116.212 28.5151L123.116 16.5515L105.75 22.4097Z" fill="#0193E0"/>
<path d="M116.212 76.7225L109.519 88.6509L126.674 83.0043L116.212 76.7225Z" fill="#01C1EE"/>
<path d="M109.519 88.6509L119.77 94.9326L126.674 83.0043L109.519 88.6509Z" fill="#01B5EA"/>
</g>
</g>
<path d="M122.588 24.3508H123.081C123.187 24.3508 123.257 24.4213 123.257 24.5272V109.755C123.257 109.861 123.187 109.931 123.081 109.931H122.588C122.482 109.931 122.412 109.861 122.412 109.755V24.5272C122.412 24.4213 122.482 24.3508 122.588 24.3508Z" fill="#565656"/>
<path d="M159.928 40.9728L160.069 41.0787V41.7845L159.963 41.8904C158.906 41.8904 158.272 41.9609 158.025 42.0315C157.779 42.1021 157.603 42.2433 157.497 42.4197C157.391 42.5962 157.321 42.9491 157.321 43.4432C157.321 43.9725 157.286 45.4195 157.25 47.8192V54.4186C157.25 55.3715 157.25 56.4655 157.286 57.6654C157.286 58.8653 157.356 59.5711 157.462 59.7476C157.568 59.9593 157.708 60.1005 157.955 60.1711C158.202 60.2769 158.871 60.3122 159.998 60.3475L160.104 60.4534V61.1592L159.963 61.2651C158.413 61.1945 157.039 61.1239 155.912 61.1239C154.785 61.1239 153.798 61.1592 151.931 61.2651L151.79 61.1592V60.4887L151.896 60.3828C152.953 60.3828 153.587 60.3122 153.834 60.2416C154.08 60.1711 154.256 60.0299 154.362 59.8535C154.468 59.677 154.538 59.3241 154.538 58.7947C154.538 58.2654 154.573 56.8184 154.608 54.4539V43.9372L149.677 54.2775C148.444 56.8537 147.352 59.2888 146.436 61.5827H145.872C145.344 60.3475 144.886 59.3594 144.569 58.6183L137.735 44.396V54.4186C137.735 55.3715 137.735 56.4302 137.77 57.6654C137.77 58.8653 137.841 59.5711 137.946 59.7829C138.052 59.9593 138.193 60.1005 138.44 60.2064C138.686 60.3122 139.355 60.3475 140.483 60.3828L140.588 60.4887V61.1592L140.448 61.3004H139.532C138.581 61.1945 137.77 61.1945 137.101 61.1945C136.432 61.1945 135.657 61.2298 133.684 61.3004L133.578 61.1945V60.524L133.684 60.3828C134.741 60.3828 135.375 60.3122 135.621 60.2416C135.868 60.1711 136.044 60.0299 136.15 59.8535C136.256 59.677 136.326 59.3241 136.326 58.83C136.326 58.3359 136.361 56.8537 136.396 54.4186V47.8545C136.396 46.9723 136.396 45.9135 136.361 44.6783C136.361 43.4432 136.291 42.7021 136.185 42.5256C136.079 42.3139 135.939 42.1727 135.692 42.1021C135.445 42.0315 134.776 41.9609 133.649 41.9257L133.543 41.8198V41.1492L133.684 41.0081C134.353 41.0434 135.234 41.0787 136.326 41.0787C137.418 41.0787 138.299 41.0787 139.074 41.0081C139.884 42.8432 140.659 44.5372 141.363 46.0194L146.788 57.1713L151.685 46.9723C153.023 44.2196 153.904 42.2433 154.362 41.0081C155.278 41.0434 156.194 41.0787 157.074 41.0787C157.955 41.0787 158.836 41.0787 159.892 41.0081L159.928 40.9728Z" fill="#565656"/>
<path d="M161.548 40.9375L163.345 41.0081C164.507 41.0434 165.282 41.0787 165.634 41.0787C165.987 41.0787 167.325 41.0434 169.721 40.9728L169.826 41.0787V41.7845L169.721 41.8904C169.051 41.8904 168.558 41.9256 168.206 41.9609C167.854 41.9962 167.572 42.0668 167.431 42.1727C167.255 42.2786 167.149 42.5256 167.114 42.9138C167.079 43.302 167.043 43.8314 167.043 44.5372V47.8192V54.4539V57.2419C167.043 58.3359 167.079 59.0065 167.149 59.3241C167.184 59.6417 167.255 59.8534 167.36 59.9593C167.466 60.0652 167.642 60.1358 167.889 60.2416C168.135 60.3122 168.77 60.3828 169.791 60.4181L169.897 60.4887V61.1945L169.791 61.3004C169.756 61.3004 168.91 61.3004 167.29 61.2298C166.621 61.2298 166.092 61.2298 165.705 61.2298C165.317 61.2298 164.049 61.2651 161.619 61.3357L161.513 61.2298V60.524L161.619 60.4534C162.499 60.4181 163.098 60.3828 163.38 60.3122C163.662 60.2416 163.873 60.1711 163.979 60.1005C164.084 59.9946 164.155 59.8182 164.225 59.5358C164.296 59.2535 164.331 58.583 164.331 57.5595V54.5245V47.8898V45.1018C164.296 44.0078 164.261 43.302 164.225 42.9844C164.19 42.6668 164.12 42.455 164.014 42.3491C163.908 42.2433 163.732 42.1727 163.486 42.1021C163.239 42.0315 162.605 41.9962 161.583 41.9609L161.478 41.8551V41.1492L161.583 41.0434L161.548 40.9375Z" fill="#565656"/>
<path d="M171.094 41.0434L171.2 40.9375C173.56 41.0081 174.934 41.0434 175.286 41.0434C175.639 41.0434 176.977 41.0081 179.373 40.9375L179.478 41.0434V41.7492L179.373 41.8551C178.703 41.8551 178.21 41.8904 177.858 41.9256C177.506 41.9609 177.224 42.0315 177.083 42.1374C176.907 42.2433 176.801 42.4903 176.766 42.8785C176.731 43.2667 176.695 43.7961 176.695 44.5019V47.7839V54.101C176.695 55.6891 176.695 56.7831 176.695 57.4184L176.766 59.8887H179.69C182.015 59.8887 183.459 59.8887 184.058 59.8182C184.621 59.7476 185.185 59.6064 185.713 59.3947C185.819 59.1476 185.96 58.6183 186.171 57.736C186.383 56.8537 186.453 56.3949 186.488 56.2538L186.629 56.1479H187.334L187.439 56.2538C187.369 56.642 187.299 57.3831 187.193 58.4771C187.122 59.5711 187.087 60.4534 187.087 61.1239L186.982 61.2298C185.185 61.1592 182.79 61.1592 179.831 61.1592H175.639C174.688 61.1592 173.701 61.1592 172.715 61.2298L172.609 61.1239V60.6651L172.715 60.524C173.314 60.2064 173.631 60.0299 173.701 59.9593C173.772 59.8887 173.807 59.2888 173.877 58.1242C173.948 56.9596 173.983 55.548 173.983 53.9246V44.996C173.948 43.9019 173.913 43.1961 173.877 42.8785C173.842 42.5609 173.772 42.3491 173.666 42.2433C173.56 42.1374 173.384 42.0668 173.138 41.9962C172.891 41.9256 172.257 41.8904 171.235 41.8551L171.13 41.7492L171.094 41.0434Z" fill="#565656"/>
<path d="M188.989 41.0434L189.095 40.9375C191.455 41.0081 192.829 41.0434 193.181 41.0434C193.534 41.0434 194.872 41.0081 197.268 40.9375L197.373 41.0434V41.7492L197.268 41.8551C196.598 41.8551 196.105 41.8904 195.753 41.9256C195.401 41.9609 195.119 42.0315 194.978 42.1374C194.802 42.2433 194.696 42.4903 194.661 42.8785C194.626 43.2667 194.59 43.7961 194.59 44.5019V47.7839V54.101C194.59 55.6891 194.59 56.7831 194.59 57.4184L194.661 59.8887H197.585C199.91 59.8887 201.354 59.8887 201.953 59.8182C202.516 59.7476 203.08 59.6064 203.608 59.3947C203.714 59.1476 203.855 58.6183 204.066 57.736C204.278 56.8537 204.348 56.3949 204.383 56.2538L204.524 56.1479H205.229L205.334 56.2538C205.264 56.642 205.194 57.3831 205.088 58.4771C205.017 59.5711 204.982 60.4534 204.982 61.1239L204.877 61.2298C203.08 61.1592 200.685 61.1592 197.726 61.1592H193.534C192.583 61.1592 191.596 61.1592 190.61 61.2298L190.504 61.1239V60.6651L190.61 60.524C191.209 60.2064 191.526 60.0299 191.596 59.9593C191.667 59.8887 191.702 59.2888 191.772 58.1242C191.843 56.9596 191.878 55.548 191.878 53.9246V44.996C191.843 43.9019 191.808 43.1961 191.772 42.8785C191.737 42.5609 191.667 42.3491 191.561 42.2433C191.455 42.1374 191.279 42.0668 191.033 41.9962C190.786 41.9256 190.152 41.8904 189.13 41.8551L189.025 41.7492L188.989 41.0434Z" fill="#565656"/>
<path d="M207.483 56.2538L207.589 56.1479H208.293L208.399 56.2538C208.434 57.489 208.505 58.2301 208.575 58.5124C208.646 58.7947 208.928 59.077 209.35 59.3594C209.773 59.677 210.372 59.8887 211.076 60.1005C211.781 60.2769 212.521 60.3828 213.26 60.3828C214 60.3828 215.163 60.2064 215.973 59.8182C216.783 59.43 217.417 58.9006 217.84 58.1948C218.263 57.489 218.509 56.6773 218.509 55.7597C218.509 54.8421 218.403 54.5951 218.192 54.101C217.981 53.6422 217.664 53.254 217.276 52.9717C216.889 52.6894 216.466 52.4776 215.938 52.3365C215.444 52.1953 214.705 52.0541 213.718 51.8777C212.767 51.7365 212.027 51.5954 211.464 51.4542C210.9 51.313 210.372 51.1366 209.843 50.8895C209.315 50.6425 208.857 50.2896 208.505 49.9014C208.153 49.5132 207.871 49.0191 207.659 48.4545C207.448 47.8898 207.342 47.2546 207.342 46.584C207.342 44.7842 207.976 43.3373 209.209 42.208C210.442 41.0787 212.098 40.514 214.212 40.514C216.325 40.514 215.938 40.6199 216.924 40.8316C217.91 41.0434 218.791 41.3257 219.601 41.7492L219.707 41.9256C219.495 42.8079 219.355 44.0431 219.319 45.6665L219.178 45.7724H218.439L218.333 45.6665C218.333 44.5372 218.298 43.7961 218.263 43.5137C218.227 43.2314 217.805 42.8432 216.959 42.4197C216.114 41.9962 215.233 41.7492 214.247 41.7492C213.26 41.7492 212.662 41.9256 211.957 42.2433C211.253 42.5609 210.724 43.0902 210.372 43.7608C210.02 44.4313 209.843 45.1724 209.843 45.8782C209.843 46.584 209.949 46.937 210.16 47.3604C210.372 47.7839 210.654 48.1369 211.006 48.3839C211.358 48.6309 211.746 48.8427 212.204 48.9485C212.662 49.0897 213.507 49.2309 214.74 49.4073C216.431 49.6544 217.664 49.9367 218.439 50.2896C219.214 50.6425 219.813 51.1719 220.27 51.913C220.728 52.6541 220.975 53.5364 220.975 54.5598C220.975 56.6067 220.165 58.3006 218.509 59.6417C216.853 60.9828 214.846 61.6886 212.485 61.6886C210.125 61.6886 208.787 61.3357 207.307 60.6298L207.237 60.4534C207.342 59.8534 207.413 58.4418 207.483 56.2538Z" fill="#565656"/>
<path d="M132.099 73.7581L131.993 73.6522V72.9464L132.099 72.8405C133.719 72.9111 134.987 72.9464 135.868 72.9464C136.749 72.9464 137.524 72.9111 139.813 72.8405C140.553 72.8405 141.082 72.8405 141.434 72.8405C142.737 72.8405 143.724 72.9817 144.499 73.2287C145.274 73.4758 145.872 73.9345 146.33 74.6051C146.788 75.2756 147 76.0167 147 76.8284C147 77.6401 146.612 78.8753 145.872 79.7928C145.097 80.7104 143.864 81.3456 142.138 81.7338C143.16 81.8397 144.005 81.9809 144.675 82.1573C145.344 82.3338 145.908 82.6161 146.401 83.0043C146.894 83.3925 147.281 83.8866 147.563 84.4865C147.845 85.0865 147.986 85.7923 147.986 86.5687C147.986 87.3451 147.88 87.8039 147.704 88.4744C147.528 89.1096 147.176 89.7449 146.647 90.3801C146.154 91.0154 145.52 91.5447 144.78 92.0035C144.041 92.4623 143.301 92.7799 142.561 92.9916C141.786 93.2034 140.87 93.3093 139.743 93.3093C138.616 93.3093 138.827 93.3093 137.7 93.2387C136.432 93.2387 135.762 93.2034 135.657 93.2034C135.023 93.2034 134.212 93.2387 133.261 93.3093L133.156 93.2034V92.7446L133.261 92.6034C133.825 92.3564 134.142 92.18 134.212 92.0741C134.283 91.9682 134.353 91.1212 134.424 89.5331C134.459 87.945 134.494 86.7099 134.494 85.8982V77.3931C134.494 76.6872 134.494 76.1226 134.459 75.6638C134.459 75.205 134.424 74.8874 134.389 74.7109C134.389 74.5345 134.283 74.3933 134.212 74.3227C134.142 74.2522 134.036 74.1816 133.895 74.1463C133.754 74.111 133.508 74.0404 133.191 74.0051L132.099 73.9345V73.7581ZM137.242 81.2751C137.735 81.3103 138.263 81.3456 138.862 81.3456C140.835 81.3456 142.209 80.9927 142.984 80.2869C143.759 79.5811 144.146 78.6282 144.146 77.3931C144.146 76.1579 144.005 76.052 143.688 75.5579C143.407 75.0638 142.913 74.6756 142.279 74.3933C141.645 74.111 140.8 74.0051 139.708 74.0051C138.616 74.0051 138.052 74.0757 137.348 74.2169C137.277 75.0638 137.207 76.5814 137.207 78.6988L137.242 81.2751ZM137.242 91.7212C137.982 91.8976 138.721 91.9682 139.496 91.9682C140.87 91.9682 141.927 91.7565 142.702 91.2977C143.477 90.8742 144.041 90.239 144.393 89.4626C144.745 88.6862 144.956 87.8392 144.956 86.9216C144.956 85.5453 144.569 84.4512 143.794 83.6043C143.019 82.7926 141.328 82.3691 138.757 82.3691C136.185 82.3691 137.806 82.3691 137.207 82.4397L137.242 91.7212Z" fill="#565656"/>
<path d="M150.064 72.9464L150.17 72.8405C151.931 72.9111 153.27 72.9464 154.256 72.9464C155.243 72.9464 156.793 72.9464 158.624 72.8405C159.294 72.8405 159.787 72.8405 160.104 72.8405C162.499 72.8405 164.155 73.264 165 74.1463C165.846 75.0286 166.304 76.052 166.304 77.2519C166.304 78.4518 166.092 78.84 165.67 79.6164C165.247 80.3928 164.648 81.0633 163.803 81.5927C162.957 82.122 161.865 82.5455 160.421 82.8279C160.703 83.2161 161.161 83.8513 161.865 84.7689L163.908 87.451C164.578 88.3332 165.282 89.2861 166.022 90.2742C166.762 91.2624 167.255 91.827 167.466 91.9329C167.677 92.0741 167.889 92.1447 168.03 92.18C168.171 92.2153 168.452 92.2152 168.769 92.2152L168.875 92.3211V92.9916L168.734 93.1328C168.276 93.0622 167.748 93.0622 167.114 93.0622C166.48 93.0622 165.705 93.0622 164.895 93.1328C164.225 92.3211 163.204 90.9448 161.795 88.9685C160.139 86.6746 158.483 84.5571 156.757 82.5808L156.898 82.122C157.391 82.122 157.779 82.1573 158.061 82.1573C159.716 82.1573 160.984 81.7691 161.936 80.9574C162.887 80.1457 163.345 79.0517 163.345 77.6754C163.345 76.299 162.922 75.452 162.076 74.8168C161.231 74.1816 160.104 73.864 158.66 73.864C157.215 73.864 156.722 74.0051 155.841 74.2874C155.701 74.4992 155.63 76.299 155.63 79.6517V89.0744C155.63 90.1684 155.665 90.8389 155.736 91.1565C155.771 91.4741 155.841 91.6859 155.947 91.7918C156.053 91.8976 156.229 91.9682 156.475 92.0741C156.722 92.18 157.356 92.2152 158.378 92.2505L158.483 92.3211V93.0269L158.378 93.1328C158.342 93.1328 157.497 93.1328 155.877 93.0622C155.207 93.0622 154.679 93.0622 154.291 93.0622C153.904 93.0622 152.636 93.0975 150.205 93.1681L150.1 93.0622V92.3564L150.205 92.2858C151.086 92.2505 151.685 92.2153 151.967 92.1447C152.248 92.0741 152.46 92.0035 152.565 91.9329C152.671 91.827 152.741 91.6506 152.812 91.3683C152.882 91.0859 152.918 90.4154 152.918 89.392V86.3569V79.7222V76.9343C152.882 75.8402 152.847 75.1344 152.812 74.8168C152.777 74.4992 152.706 74.2874 152.601 74.1816C152.495 74.0757 152.319 74.0051 152.072 73.9345C151.826 73.864 151.192 73.8287 150.17 73.7934L150.064 73.6875V72.9464Z" fill="#565656"/>
<path d="M169.65 93.2034L169.509 93.0975V92.3564L169.65 92.2505C170.355 92.2505 170.777 92.2152 170.989 92.1447C171.2 92.0741 171.376 91.9682 171.517 91.7565C171.658 91.5447 171.975 90.9448 172.468 89.9213L173.983 86.6393L177.858 77.8165C178.598 76.0873 179.337 74.358 180.042 72.6288H180.958L187.052 86.9922L187.862 88.8979C188.109 89.4273 188.391 90.0272 188.672 90.6624C188.989 91.2977 189.201 91.6859 189.306 91.7918C189.412 91.8976 189.588 92.0035 189.764 92.0741C189.941 92.1447 190.328 92.18 190.927 92.18L191.033 92.2858V93.0269L190.927 93.1328C189.905 93.0622 188.989 92.9916 188.179 92.9916C186.594 93.0269 185.009 93.0975 183.424 93.1328L183.318 93.0269V92.2858L183.424 92.18C184.48 92.18 185.15 92.1094 185.432 92.0388C185.713 91.9682 185.819 91.7917 185.819 91.5447C185.819 91.2977 185.749 91.0506 185.608 90.6977L183.846 86.3217H175.568L174.018 89.9919C173.736 90.6624 173.596 91.1212 173.596 91.4388C173.596 91.7565 173.736 91.8623 173.983 91.9682C174.23 92.0741 174.899 92.1447 175.92 92.1447L176.061 92.2505V92.9916L175.956 93.0975C174.723 93.0269 173.666 92.9916 172.715 92.9916C171.764 92.9916 170.601 93.0269 169.544 93.0975L169.65 93.2034ZM176.167 85.1571H183.388L179.795 76.5108L176.167 85.1571Z" fill="#565656"/>
<path d="M192.759 93.1681L192.618 93.0269V92.3564L192.759 92.2505C193.357 92.2505 193.815 92.2153 194.168 92.1447C194.52 92.0741 194.731 92.0035 194.837 91.8623C194.943 91.7212 195.013 91.5094 195.048 91.2271C195.048 90.9448 195.119 90.2742 195.154 89.2155C195.154 88.1921 195.189 87.4157 195.189 86.9922V75.4168C195.189 74.9227 195.119 74.5698 194.907 74.3227C194.731 74.0757 194.485 73.9345 194.203 73.864C193.886 73.7934 193.393 73.7581 192.653 73.7581L192.547 73.6522V72.9817L192.653 72.8405C193.956 72.8758 194.837 72.9111 195.224 72.9111C196.176 72.9111 196.986 72.9111 197.585 72.8405L202.129 78.7694L208.822 87.2039C209.632 88.2274 210.442 89.1802 211.288 90.0978V79.0164C211.288 78.6635 211.288 77.9577 211.252 76.8284C211.252 75.6991 211.182 74.9933 211.147 74.7109C211.112 74.3933 211.006 74.2169 210.9 74.111C210.795 74.0051 210.548 73.9345 210.231 73.864C209.914 73.7934 209.456 73.7934 208.892 73.7581L208.787 73.6522V72.9817L208.892 72.8405C209.667 72.8758 210.759 72.9111 212.204 72.9111C213.648 72.9111 214.458 72.9111 215.057 72.8405L215.198 72.9817V73.6522L215.092 73.7581C214.458 73.7581 213.965 73.7934 213.648 73.864C213.296 73.9345 213.084 74.0404 213.014 74.1816C212.943 74.3227 212.873 74.5345 212.838 74.8168C212.838 75.0991 212.767 75.7697 212.732 76.7931C212.732 77.8165 212.697 78.5929 212.697 79.0517V89.7802C212.697 91.0859 212.732 92.3564 212.767 93.6622C212.274 93.4857 211.464 93.3093 210.301 93.0622L209.28 91.8623L206.25 88.1215L196.563 75.9814V86.9569C196.563 87.3804 196.563 88.1921 196.598 89.3214C196.598 90.4507 196.669 91.1212 196.704 91.3683C196.739 91.6153 196.81 91.7565 196.88 91.8623C196.951 91.9682 197.127 92.0388 197.373 92.1094C197.62 92.18 198.148 92.2152 198.923 92.2505L199.029 92.3564V93.0269L198.923 93.1328C198.43 93.0622 197.62 93.0269 196.528 93.0269C195.436 93.0269 193.851 93.0269 192.794 93.1328L192.759 93.1681Z" fill="#565656"/>
<path d="M216.572 72.9464L216.677 72.8405C218.333 72.9111 219.46 72.9464 220.059 72.9464L226.752 72.8052C228.654 72.8052 230.204 72.9817 231.437 73.3346C232.67 73.6875 233.727 74.3227 234.678 75.205C235.629 76.0873 236.334 77.1107 236.827 78.2753C237.32 79.4399 237.567 80.7104 237.567 82.0162C237.567 83.3219 237.355 84.5924 236.897 85.8276C236.439 87.0981 235.805 88.2274 234.995 89.2155C234.185 90.2037 233.234 91.0154 232.177 91.6153C231.12 92.2152 230.063 92.6387 229.007 92.8505C227.95 93.0622 226.858 93.1681 225.766 93.1681C224.674 93.1681 223.617 93.1681 221.574 93.0975C220.905 93.0975 220.447 93.0975 220.235 93.0975C219.566 93.0975 218.791 93.1328 217.84 93.2034L217.734 93.0975V92.6387L217.84 92.4976C218.403 92.2152 218.72 92.0388 218.791 91.9682C218.861 91.8976 218.932 91.0506 219.002 89.4625C219.038 87.8745 219.073 86.6393 219.073 85.7923V77.2872C219.073 76.5814 219.073 76.0167 219.038 75.5579C219.038 75.0991 219.002 74.7815 218.932 74.6051C218.897 74.4286 218.826 74.2874 218.756 74.2169C218.685 74.1463 218.58 74.0757 218.439 74.0404C218.298 74.0051 218.051 73.9345 217.734 73.8992L216.642 73.8287L216.536 73.7228V73.017L216.572 72.9464ZM221.856 91.6506C222.842 91.827 223.934 91.9329 225.202 91.9329C227.421 91.9329 229.183 91.5447 230.521 90.8036C231.86 90.0625 232.846 88.9685 233.516 87.4863C234.185 86.004 234.502 84.3806 234.502 82.5455C234.502 79.8281 233.797 77.746 232.353 76.2637C230.909 74.7815 228.654 74.0404 225.554 74.0404C222.454 74.0404 223.053 74.1463 221.856 74.3227C221.785 75.8755 221.75 77.6401 221.75 79.6164V88.3332C221.75 89.1449 221.82 90.2742 221.856 91.6506Z" fill="#565656"/>
<path d="M239.927 88.1568L240.032 88.0509H240.737L240.843 88.1568C240.878 89.392 240.948 90.1331 241.019 90.4154C241.089 90.6977 241.371 90.9801 241.794 91.2624C242.216 91.58 242.815 91.7918 243.52 92.0035C244.224 92.18 244.964 92.2858 245.704 92.2858C246.444 92.2858 247.606 92.1094 248.416 91.7212C249.227 91.333 249.861 90.8036 250.283 90.0978C250.741 89.392 250.953 88.5803 250.953 87.6627C250.953 86.7451 250.847 86.4981 250.636 86.004C250.424 85.5453 250.107 85.1571 249.72 84.8747C249.332 84.5924 248.909 84.3807 248.381 84.2395C247.888 84.0983 247.148 83.9572 246.162 83.7807C245.211 83.6395 244.471 83.4984 243.907 83.3572C243.379 83.2161 242.815 83.0396 242.287 82.7926C241.759 82.5455 241.301 82.1926 240.948 81.8044C240.596 81.4162 240.314 80.9221 240.103 80.3575C239.892 79.7928 239.786 79.1576 239.786 78.4871C239.786 76.6872 240.42 75.2403 241.653 74.111C242.886 72.9817 244.541 72.417 246.655 72.417C248.769 72.417 248.381 72.5229 249.367 72.7346C250.354 72.9464 251.234 73.2287 252.045 73.6522L252.15 73.8287C251.939 74.7109 251.798 75.9461 251.763 77.5695L251.622 77.6754H250.882L250.776 77.5695C250.776 76.4402 250.741 75.6991 250.706 75.4168C250.671 75.1344 250.248 74.7462 249.403 74.3227C248.557 73.8992 247.677 73.6522 246.69 73.6522C245.704 73.6522 245.105 73.8287 244.4 74.1463C243.696 74.4639 243.168 74.9933 242.815 75.6638C242.463 76.3696 242.287 77.0754 242.287 77.7812C242.287 78.4871 242.393 78.84 242.604 79.2635C242.815 79.687 243.097 80.0399 243.449 80.2869C243.802 80.5339 244.189 80.7457 244.647 80.8516C245.105 80.9574 245.95 81.1339 247.183 81.3103C248.874 81.5574 250.107 81.8397 250.882 82.1926C251.657 82.5455 252.256 83.0749 252.714 83.816C253.172 84.5571 253.418 85.4394 253.418 86.4628C253.418 88.5097 252.608 90.2037 250.953 91.5447C249.297 92.8858 247.289 93.5916 244.929 93.5916C242.569 93.5916 241.23 93.2387 239.751 92.5329L239.68 92.3564C239.786 91.7565 239.856 90.3448 239.927 88.1568Z" fill="#565656"/>
<path d="M225.73 45.0665C223.194 45.0665 221.116 42.9844 221.116 40.4434C221.116 37.9025 223.194 35.8203 225.73 35.8203C228.267 35.8203 230.345 37.9025 230.345 40.4434C230.345 42.9844 228.267 45.0665 225.73 45.0665ZM225.73 36.632C223.652 36.632 221.961 38.326 221.961 40.4081C221.961 42.4903 223.652 44.1843 225.73 44.1843C227.809 44.1843 229.5 42.4903 229.5 40.4081C229.5 38.326 227.809 36.632 225.73 36.632Z" fill="#565656"/>
<path d="M227.351 42.9844L226.188 41.2198C226.048 40.9728 225.801 40.8669 225.449 40.8669H224.885V42.9844H223.934V37.7966H226.153C226.611 37.7966 226.963 37.9378 227.316 38.2201C227.668 38.5377 227.844 38.8906 227.844 39.3494C227.844 39.8082 227.738 40.0199 227.492 40.3023C227.316 40.4787 227.14 40.6199 226.928 40.7257C226.963 40.761 226.999 40.8316 227.069 40.8669C227.104 40.9375 227.14 40.9728 227.21 41.0434L228.478 43.0197L227.351 42.9844ZM226.682 38.8906C226.541 38.7847 226.365 38.7142 226.153 38.7142H224.85V39.8788H226.153C226.329 39.8788 226.506 39.8082 226.682 39.7023C226.823 39.5964 226.893 39.4553 226.893 39.2788C226.893 39.1024 226.823 38.9612 226.682 38.8906Z" fill="#565656"/>
</svg>
